<svg width="143" height="40" viewBox="0 0 143 40" fill="none" xmlns="http://www.w3.org/2000/svg">
<g clip-path="url(#clip0_27_564)">
<path d="M0 0.692439C2.43605 0.211767 3.91652 1.15967 5.24894 3.31093C8.80544 9.02521 12.6513 14.5815 16.7091 20.158V0.74622H19.5422V25.0454C17.5234 25.6034 16.1573 25.1798 14.9595 23.2571C11.5948 17.8588 7.97772 12.6185 4.45824 7.31765C4.09485 6.76975 3.72809 6.22521 3.11235 5.30084V25.1529H0V0.692439Z" fill="#1E5542"/>
<path d="M59.8921 0.0235291C62.6242 0.736134 65.205 1.73109 67.1161 3.94622C70.6188 8.00672 71.3422 12.6857 69.5757 17.5697C67.8665 22.2992 64.3234 25.0723 59.1922 25.6605C52.1264 26.4739 45.757 20.2454 45.9353 12.6655C46.0867 6.32269 49.9225 1.64034 56.0967 0.262185C56.2505 0.202567 56.3954 0.122275 56.5274 0.0235291H59.8921ZM58.1761 22.8067C63.388 22.8067 67.5468 18.363 67.5333 12.8168C67.5199 7.27059 63.3577 2.83361 58.1324 2.87731C52.9776 2.92101 48.7852 7.47563 48.8357 12.9613C48.8861 18.4471 53.0315 22.8101 58.1761 22.8067Z" fill="#1E5542"/>
<path d="M87.1455 0.0235291C90.5102 0.820168 93.461 2.24538 95.3352 5.30756C95.823 6.10756 96.2201 6.95798 96.681 7.82185C95.4294 8.63529 95.2073 7.71429 94.8305 7.00504C94.1384 5.67191 93.1712 4.50053 91.9928 3.5682C90.8143 2.63586 89.4513 1.96376 87.9938 1.59625C86.5363 1.22873 85.0173 1.17416 83.5371 1.43612C82.0569 1.69808 80.6491 2.27062 79.4066 3.11597C75.1436 5.96639 73.2694 11.563 74.8946 16.5849C76.476 21.4689 80.8232 24.6151 85.7659 24.4471C91.2672 24.2588 95.9946 19.3714 95.7524 13.9261C92.8083 13.9261 89.8507 13.9529 86.8931 13.8992C86.3985 13.8992 85.9106 13.5227 85.4194 13.321L85.6011 12.8336C85.8124 12.775 86.0286 12.7356 86.2471 12.716C89.8305 12.716 93.4139 12.716 97.1218 12.716V25.079L96.7147 25.3311C96.4623 24.9311 96.0148 24.5445 95.9913 24.1311C95.9072 22.5748 95.9576 21.0151 95.9576 19.1361C95.7511 19.3309 95.5609 19.5422 95.389 19.7681C93.0169 24.0101 89.3123 25.9798 84.5445 25.6504C79.3528 25.2908 75.8367 22.4202 73.9457 17.637C70.8468 9.77815 75.9948 1.27395 83.3299 0.235294C83.4897 0.187038 83.6416 0.115695 83.7808 0.0235291H87.1455Z" fill="#1E5542"/>
<path d="M25.6191 25.1059V0.78656H43.1627V3.41513H28.6945V10.9445H41.6553V13.7177H28.7315V22.3563H43.156V25.1059H25.6191Z" fill="#1E5542"/>
<path d="M141.557 23.3008V21.2235C141.557 14.9143 141.557 8.60504 141.584 2.29915C141.584 1.76134 141.978 1.22688 142.19 0.69243C142.378 1.19663 142.728 1.70083 142.731 2.19831C142.765 9.40168 142.758 16.605 142.751 23.805C142.751 24.242 142.687 24.6756 142.603 25.7714C141.644 25.0084 140.894 24.6286 140.45 24.0269C135.598 17.479 130.8 10.8773 125.985 4.29243C125.696 3.89915 125.386 3.51932 124.747 2.69243V4.87058C124.747 11.1787 124.747 17.488 124.747 23.7983C124.747 24.5513 124.902 25.479 123.532 25.1092V0.16806C124.542 0.91764 125.349 1.28403 125.81 1.90588C130.659 8.46386 135.45 15.0655 140.278 21.6504C140.571 22.0773 140.914 22.484 141.557 23.3008Z" fill="#1E5542"/>
<path d="M102.156 0.71933H118.223C118.337 1.90588 118.337 1.92941 117.119 1.93278C113.199 1.93278 109.276 1.93278 105.343 1.93278H103.431V11.7042H116.682C116.759 11.9059 116.833 12.1109 116.91 12.3126C116.45 12.5345 115.992 12.9412 115.528 12.9479C112.163 13.005 108.798 12.9782 105.433 12.9782H103.465V24.0706H107.631C110.881 24.0706 114.131 24.0706 117.388 24.0941C117.725 24.0941 118.085 24.4303 118.435 24.5916C118.135 24.8134 117.839 25.2269 117.54 25.2269C112.449 25.2672 107.358 25.2571 102.163 25.2571L102.156 0.71933Z" fill="#1E5542"/>
<path d="M140.293 39.2H139.322V36.548C139.322 36.4752 139.311 36.4024 139.27 36.3504L136.711 31.9616H137.818C138.476 33.1368 139.531 35.0088 139.865 35.6432C140.178 35.0192 141.264 33.1368 141.943 31.9616H142.977L140.335 36.3712C140.314 36.4128 140.293 36.4544 140.293 36.5584V39.2Z" fill="#1E5542"/>
<path d="M126.217 35.2896V39.2H125.475C125.423 39.0648 125.392 38.7424 125.381 38.2224C125.068 38.732 124.441 39.2936 123.125 39.2936C121.026 39.2936 119.919 37.7128 119.919 35.6536C119.919 33.4904 121.11 31.8576 123.303 31.8576C124.995 31.8576 126.049 32.7728 126.258 34.0624H125.298C125.047 33.2512 124.472 32.6584 123.282 32.6584C121.6 32.6584 120.932 34 120.932 35.612C120.932 37.0992 121.6 38.4928 123.24 38.4928C124.869 38.4928 125.277 37.4112 125.277 36.1944V36.1112H123.23V35.2896H126.217Z" fill="#1E5542"/>
<path d="M105.569 31.8576C107.616 31.8576 108.891 33.3864 108.891 35.5392C108.891 37.536 107.773 39.304 105.486 39.304C103.345 39.304 102.154 37.6608 102.154 35.5808C102.154 33.5112 103.366 31.8576 105.569 31.8576ZM105.528 32.6792C103.888 32.6792 103.167 34.0104 103.167 35.5496C103.167 37.1096 103.961 38.4824 105.528 38.4824C107.209 38.4824 107.888 37.0992 107.888 35.56C107.888 34 107.126 32.6792 105.528 32.6792Z" fill="#1E5542"/>
<path d="M87.0303 39.2V31.9616H87.9911V38.3784H91.7822L91.6464 39.2H87.0303Z" fill="#1E5542"/>
<path d="M74.1302 37.0264H71.2373L70.454 39.2H69.4932L72.0832 31.9616H73.2634L75.9683 39.2H74.9344L74.1302 37.0264ZM71.4879 36.2048H73.89C73.1903 34.3016 72.8143 33.2928 72.6576 32.7416H72.6472C72.4696 33.3552 72.0415 34.5824 71.4879 36.2048Z" fill="#1E5542"/>
<path d="M57.4605 39.2V36.1216C57.4605 34.7696 57.4814 33.4072 57.5127 32.648H57.4709C57.1576 33.8232 55.9879 36.9224 55.1524 39.2H54.2855C53.6589 37.3488 52.437 33.8648 52.1132 32.6272H52.0819C52.1341 33.4696 52.1655 35.0712 52.1655 36.3192V39.2H51.2568V31.9616H52.6876C53.5127 34.208 54.5258 37.1096 54.7764 38.0248H54.7868C54.9644 37.328 56.155 34.156 57.0114 31.9616H58.4004V39.2H57.4605Z" fill="#1E5542"/>
<path d="M36.9959 36.0176H35.5129V39.2H34.5625V31.9616H37.4032C38.8967 31.9616 39.6904 32.7728 39.6904 33.896C39.6904 34.8424 39.1473 35.4144 38.4476 35.6016C39.0429 35.7576 39.5546 36.2048 39.5546 37.4528V37.7648C39.5546 38.264 39.5338 38.8984 39.6591 39.2H38.7191C38.5834 38.888 38.5938 38.3264 38.5938 37.64V37.4944C38.5938 36.4648 38.3014 36.0176 36.9959 36.0176ZM35.5129 32.7728V35.2064H37.0899C38.2074 35.2064 38.6878 34.7904 38.6878 33.9792C38.6878 33.2096 38.1865 32.7728 37.2048 32.7728H35.5129Z" fill="#1E5542"/>
<path d="M22.9627 34.9984V35.82H19.3491V38.3784H23.3178L23.1924 39.2H18.4092V31.9616H23.1402V32.7832H19.3491V34.9984H22.9627Z" fill="#1E5542"/>
<path d="M0.960938 39.2V31.9616H3.551C5.59799 31.9616 6.97658 33.3552 6.97658 35.508C6.97658 37.6504 5.62933 39.2 3.51967 39.2H0.960938ZM1.92177 32.7832V38.3888H3.44657C5.15935 38.3888 5.96353 37.1616 5.96353 35.5288C5.96353 34.104 5.22202 32.7832 3.44657 32.7832H1.92177Z" fill="#1E5542"/>
</g>
<defs>
<clipPath id="clip0_27_564">
<rect width="143" height="40" fill="white"/>
</clipPath>
</defs>
</svg>
