<svg width="190" height="41" viewBox="0 0 190 41" fill="none" xmlns="http://www.w3.org/2000/svg">
<g clip-path="url(#clip0_27_671)">
<path d="M59.6519 22.14C59.6519 16.3691 59.6519 10.5942 59.6519 4.8233C59.6519 3.99556 59.8982 3.69386 60.722 3.7132C62.381 3.75188 64.04 3.73641 65.6991 3.7132C66.2534 3.7132 66.6499 3.78669 66.6422 4.48679C66.6422 5.11726 67.0271 5.20622 67.5121 4.95481C70.363 3.467 73.6002 2.89583 76.785 3.31868C78.6922 3.51965 80.5329 4.13592 82.1788 5.12455C83.8248 6.11319 85.2366 7.45044 86.3159 9.0432C88.7756 12.6017 89.2952 16.6011 88.5792 20.7205C87.8941 24.6774 85.7308 27.7833 82.278 29.9416C80.0327 31.3238 77.4432 32.0374 74.8103 31.9993C72.2977 32.0163 69.8136 31.4637 67.5429 30.3825C66.7345 29.9958 66.6306 30.0924 66.6345 30.9782C66.6345 33.8147 66.6345 36.6512 66.6345 39.4876C66.6345 40.5668 66.5421 40.648 65.4604 40.648H60.9106C59.802 40.648 59.6519 40.4933 59.6519 39.418V22.14ZM66.6229 17.6107C66.6229 19.2197 66.5806 20.8288 66.6537 22.434C66.6677 22.6779 66.7296 22.9167 66.836 23.1364C66.9424 23.3562 67.0911 23.5526 67.2734 23.7142C70.145 25.7604 73.2745 26.2091 76.6426 25.1299C77.7458 24.8152 78.757 24.2372 79.5901 23.4452C80.4232 22.6532 81.0535 21.6707 81.4273 20.5812C83.2518 15.4408 80.3225 10.6407 75.1606 9.69301C73.7807 9.42842 72.3608 9.45872 70.9933 9.78192C69.6258 10.1051 68.3413 10.714 67.2234 11.569C66.8914 11.8563 66.6854 12.2634 66.6499 12.7023C66.5883 14.3384 66.6229 15.9745 66.6229 17.6107Z" fill="#1E5542"/>
<path d="M35.9636 19.6374C32.8842 19.6374 29.7958 19.6374 26.6984 19.6374C25.6129 19.6374 25.5012 19.8386 25.8631 20.8713C26.9486 23.9463 29.8009 25.8648 33.0843 25.9615C34.4247 26.0357 35.7653 25.8189 37.0148 25.3256C38.2642 24.8323 39.3932 24.0743 40.3249 23.1031C40.6828 22.7395 40.9446 22.7163 41.3334 23.0335C42.4112 23.9734 43.5005 24.9017 44.6091 25.8029C45.0864 26.1897 45.071 26.5185 44.6899 26.9633C43.0749 28.7871 41.03 30.1742 38.7428 30.9975C35.9151 32.0042 32.8787 32.2704 29.9202 31.7711C27.3397 31.3812 24.9438 30.1944 23.0646 28.3751C19.5002 24.9868 18.2338 20.7746 18.6649 15.9629C18.7974 14.1106 19.3055 12.3051 20.1581 10.6575C21.0108 9.0098 22.1898 7.55484 23.6228 6.38206C25.2635 5.06156 27.177 4.12595 29.2235 3.64357C31.0026 3.21711 32.8428 3.11104 34.6587 3.33027C36.9665 3.52648 39.1665 4.39784 40.9869 5.83668C43.8469 8.08394 45.3058 11.1009 45.8563 14.6169C46.0487 15.8585 46.1912 17.1117 46.2412 18.3688C46.2912 19.6258 46.2643 19.6336 44.9555 19.6336H35.9636V19.6374ZM32.5223 15.0501C34.5278 15.0501 36.5295 15.0501 38.5311 15.0501C39.2278 15.0501 39.401 14.7987 39.2663 14.0908C39.0564 12.7785 38.4232 11.5717 37.4641 10.6562C36.505 9.74076 35.2732 9.16722 33.9581 9.02385C32.2501 8.77031 30.5081 9.13741 29.0454 10.0591C27.5827 10.9809 26.4952 12.3967 25.9786 14.0522C25.763 14.7909 25.9247 15.0501 26.6868 15.0423C28.6346 15.0385 30.5785 15.0539 32.5223 15.0501Z" fill="#1E5542"/>
<path d="M0.5 17.6029C0.5 13.2941 0.5 8.98906 0.5 4.68019C0.5 3.93755 0.780998 3.71708 1.45077 3.72481C3.1945 3.72481 4.93823 3.74415 6.68196 3.72481C7.35558 3.72481 7.61733 3.99557 7.58269 4.65312C7.54998 5.198 7.54998 5.74437 7.58269 6.28925C7.63716 6.52266 7.72535 6.7468 7.84444 6.95453C8.08138 6.88288 8.30787 6.78014 8.51807 6.64897C9.25328 6.06491 9.92306 5.38802 10.6968 4.86199C12.7099 3.49274 14.9849 3.10595 17.3637 3.31482C17.5267 3.36533 17.6742 3.45688 17.7921 3.58076C17.91 3.70465 17.9944 3.85676 18.0374 4.02265C18.0951 6.17708 18.0912 8.33151 18.0374 10.4821C17.9921 10.612 17.9146 10.7281 17.8122 10.8195C17.7099 10.9108 17.586 10.9744 17.4523 11.0042C16.6593 11.0042 15.8664 10.7838 15.0734 10.8031C13.6607 10.8341 12.2557 10.9694 10.9739 11.6927C8.45648 13.1084 7.62503 15.4562 7.57499 18.1251C7.498 22.2019 7.57499 26.2787 7.57499 30.3555C7.57499 31.5352 7.5211 31.5893 6.38171 31.5893C4.8112 31.5893 3.23684 31.5893 1.66249 31.5893C0.646273 31.5893 0.507699 31.4075 0.507699 30.3671C0.502566 26.1098 0.5 21.8551 0.5 17.6029Z" fill="#1E5542"/>
<path d="M107.783 29.1293C107.783 28.0115 107.86 26.8898 107.783 25.7797C107.595 23.5324 107.202 21.7106 103.549 21.1382C103.274 21.0568 102.989 21.0177 102.702 21.0222C101.825 21.1653 101.625 20.7707 101.628 19.9624C101.628 19.0921 102.137 19.1153 102.752 19.0727C104.485 18.9606 106.275 18.7749 107.11 16.957C107.506 16.0137 107.716 15.0023 107.73 13.9787C107.814 11.8281 107.622 9.66593 107.768 7.52697C107.899 5.93273 108.2 4.3572 108.665 2.82744C109.05 1.43886 110.205 0.758105 111.606 0.541501C112.695 0.371312 113.792 0.232066 114.889 0.0966889C115.705 -0.00387711 115.844 0.483481 115.809 1.16037C115.778 1.76376 115.913 2.37103 114.939 2.36329C114.093 2.3684 113.251 2.4828 112.433 2.70367C111.025 3.09046 110.613 4.25084 110.451 5.53112C110.369 6.38456 110.34 7.24239 110.366 8.09943C110.366 10.0334 110.49 12.0138 110.32 13.9516C110.192 15.3404 109.839 16.699 109.277 17.9742C108.988 18.6395 108.072 19.0302 107.441 19.5446C107.229 19.7148 107.025 19.8927 106.817 20.0668C106.987 20.2603 107.179 20.4318 107.391 20.5773C108.931 21.32 109.7 22.5113 110.031 24.2209C110.597 27.0484 110.247 29.8758 110.328 32.7033C110.362 33.7591 110.509 34.8082 110.767 35.8324C111.032 36.9155 112.156 37.6697 113.276 37.7123C113.877 37.7355 114.477 37.7625 115.078 37.7316C115.755 37.6929 115.848 38.1184 115.802 38.6135C115.755 39.1086 116.109 39.9092 115.197 39.9634C113.519 40.1037 111.833 39.8177 110.293 39.1318C109.735 38.864 109.257 38.455 108.904 37.9451C108.551 37.4351 108.336 36.8417 108.28 36.2231C107.934 33.883 107.764 31.512 107.51 29.1525L107.783 29.1293Z" fill="#1E5542"/>
<path d="M90.127 27.9032C90.2501 25.2923 92.0901 23.7104 94.1803 23.749C95.2513 23.7723 96.2712 24.2139 97.0236 24.9803C97.7759 25.7466 98.2015 26.7774 98.21 27.8539C98.2185 28.9303 97.8093 29.9678 97.0692 30.746C96.329 31.5243 95.3162 31.9822 94.2457 32.0225C91.4588 32.0612 90.1616 29.783 90.127 27.9032Z" fill="#1E5542"/>
<path d="M56.1913 27.9109C56.1913 29.7714 54.7401 32.0844 52.061 32.0225C51.5393 32.02 51.0232 31.9136 50.5427 31.7094C50.0622 31.5051 49.6268 31.2071 49.2616 30.8327C48.8965 30.4582 48.6089 30.0147 48.4154 29.5278C48.222 29.0409 48.1266 28.5202 48.1348 27.996C48.1963 25.2885 49.9439 23.7413 52.1457 23.7413C54.2436 23.7684 56.0527 25.2382 56.1913 27.9109Z" fill="#1E5542"/>
<path d="M52.1153 11.9209C49.5402 12.0022 48.1198 9.60019 48.1275 7.95246C48.1275 5.60849 49.9751 3.52755 52.4926 3.72868C53.5278 3.86007 54.4783 4.37096 55.1617 5.16332C55.8451 5.95568 56.2133 6.9737 56.1956 8.02208C56.1301 9.75491 54.5019 12.0757 52.1153 11.9209Z" fill="#1E5542"/>
<path d="M125.721 33.4305C125.721 32.1102 125.721 30.7913 125.721 29.4736C125.721 29.0558 125.752 28.6265 126.318 28.6265C127.867 28.5504 129.419 28.5594 130.968 28.6536C132.731 28.8392 133.82 30.5257 133.789 32.479C133.766 34.0687 132.18 36.0723 130.637 35.9407C129.867 35.875 129.097 35.9407 128.35 35.8557C127.753 35.7822 127.553 35.9872 127.58 36.5364C127.58 36.7956 127.58 37.0547 127.58 37.31C127.623 37.9985 127.419 38.3737 126.626 38.3814C125.833 38.3891 125.69 37.9675 125.706 37.2984C125.729 36.0104 125.706 34.7185 125.706 33.4305H125.721ZM127.761 32.2701C127.761 33.9217 128.092 34.3162 129.513 34.3317C130.825 34.3317 131.799 33.4962 131.822 32.3165C131.845 31.1368 130.864 30.2046 129.513 30.2085C128.108 30.2162 127.761 30.6185 127.761 32.2701Z" fill="#1E5542"/>
<path d="M130.186 20.09C129.501 20.09 128.816 20.0668 128.131 20.09C127.911 20.09 127.584 20.2331 127.519 20.3956C127.499 20.5157 127.505 20.6388 127.537 20.7564C127.568 20.874 127.625 20.9831 127.704 21.0763C128.396 21.9195 129.917 22.1052 130.906 21.5946C131.272 21.4175 131.69 21.3817 132.08 21.4941C132.623 21.6759 132.638 22.1942 132.2 22.5655C129.813 24.5652 125.883 23.1534 125.348 20.1055C125.036 18.3494 126.734 16.1873 128.5 15.9281C131.441 15.491 132.777 17.3941 132.954 19.1424C133.023 19.8154 132.862 20.1209 132.153 20.09C131.445 20.0591 130.841 20.09 130.186 20.09ZM129.259 18.9064C129.6 18.9296 129.942 18.9296 130.283 18.9064C130.512 18.8472 130.733 18.7588 130.941 18.6434C130.876 18.405 130.777 18.1771 130.648 17.9665C129.944 17.1504 128.389 17.2819 127.792 18.187C127.511 18.6163 127.596 18.8948 128.15 18.9142C128.52 18.918 128.889 18.9064 129.259 18.9064Z" fill="#1E5542"/>
<path d="M186.613 19.6645C186.613 20.6122 186.613 21.5559 186.613 22.4997C186.609 22.7424 186.519 22.9757 186.359 23.1573C186.297 23.223 185.974 22.9987 185.778 22.9793C185.462 22.899 185.13 22.9097 184.819 23.0103C182.687 24.306 180.181 23.4203 179.315 21.5869C178.037 18.8793 179.7 16.0867 182.448 15.9552C183.359 15.8453 184.278 16.0933 185.012 16.6475C185.362 16.9338 185.608 16.8448 185.809 16.4232C185.893 16.2414 186.155 16.1447 186.34 16.0132C186.47 16.21 186.564 16.4288 186.617 16.6592C186.648 17.6609 186.617 18.6627 186.617 19.6645H186.613ZM179.869 19.8618C179.898 20.6127 180.213 21.3236 180.75 21.8466C181.287 22.3696 182.004 22.6645 182.752 22.6699C184.219 22.6699 185.639 21.2001 185.624 19.6916C185.57 18.9432 185.246 18.2404 184.712 17.716C184.178 17.1915 183.471 16.8816 182.725 16.8448C182.34 16.8523 181.961 16.9366 181.608 17.0928C181.256 17.2489 180.938 17.4739 180.673 17.7546C180.408 18.0353 180.201 18.3662 180.064 18.7279C179.928 19.0896 179.864 19.4751 179.877 19.8618H179.869Z" fill="#1E5542"/>
<path d="M145.391 19.6103C145.391 18.6356 145.391 17.6764 145.391 16.6823C145.391 16.0983 145.599 15.9087 146.199 16.2027C146.515 16.3453 146.873 16.3619 147.2 16.2491C147.784 15.9774 148.43 15.8679 149.07 15.9318C149.711 15.9957 150.322 16.2309 150.842 16.6127C150.92 16.6915 151.013 16.7541 151.115 16.7967C151.218 16.8394 151.328 16.8614 151.438 16.8614C151.549 16.8614 151.659 16.8394 151.761 16.7967C151.864 16.7541 151.957 16.6915 152.035 16.6127C153.19 15.7734 154.51 15.5954 155.692 16.4038C156.295 16.8673 156.706 17.5381 156.847 18.2875C157.025 19.7087 157.101 21.141 157.074 22.5732C157.074 22.7859 156.758 22.9987 156.589 23.2114C156.454 22.9987 156.204 22.7898 156.204 22.5693C156.169 21.4515 156.235 20.3298 156.204 19.212C156.1 16.8409 154.945 16.5895 153.124 16.9879C152.597 17.1078 151.993 17.9201 151.85 18.5157C151.615 19.5291 151.719 20.6237 151.681 21.6836C151.708 21.911 151.708 22.1408 151.681 22.3682C151.576 22.6483 151.447 22.9188 151.296 23.1766C151.144 22.9398 151.034 22.6779 150.973 22.403C150.934 21.3703 151.061 20.3182 150.923 19.3087C150.833 18.5596 150.542 17.8493 150.08 17.2548C149.452 16.5237 148.405 16.7055 147.67 17.0072C147.357 17.1585 147.08 17.3761 146.859 17.6452C146.637 17.9143 146.477 18.2285 146.388 18.566C146.176 19.7921 146.296 21.0802 146.215 22.3372C146.215 22.6273 145.915 22.902 145.757 23.1843C145.58 22.9384 145.449 22.6617 145.372 22.3682C145.322 21.4515 145.353 20.5309 145.353 19.6103H145.391Z" fill="#1E5542"/>
<path d="M140.972 20.0281C140.056 20.0281 139.144 20.0281 138.227 20.0281C137.604 20.0281 137.415 20.2834 137.692 20.8984C137.887 21.3719 138.197 21.7884 138.595 22.1094C138.992 22.4303 139.464 22.6453 139.966 22.7344C140.468 22.8235 140.984 22.7838 141.467 22.6191C141.95 22.4543 142.383 22.1698 142.727 21.7919C142.827 21.6913 142.901 21.5211 143.02 21.4863C143.273 21.4236 143.53 21.3822 143.79 21.3625C143.755 21.5946 143.79 21.8963 143.67 22.0549C141.877 24.3215 138.705 24.1513 137.127 21.6178C136.828 21.1422 136.642 20.6046 136.581 20.0458C136.521 19.487 136.587 18.9217 136.777 18.3927C136.966 17.8637 137.272 17.3849 137.673 16.9928C138.074 16.6006 138.558 16.3053 139.09 16.1292C141.649 15.2744 143.894 16.4464 144.375 19.2545C144.463 19.7806 144.213 20.0049 143.717 20.0281H140.972ZM140.549 19.123C141.265 19.123 141.977 19.123 142.693 19.123C143.139 19.123 143.343 18.9219 143.112 18.4655C142.896 17.9765 142.545 17.5603 142.1 17.2667C141.655 16.9731 141.135 16.8146 140.602 16.81C140.071 16.773 139.541 16.8923 139.076 17.1533C138.611 17.4143 138.232 17.8058 137.985 18.2798C137.665 18.8329 137.8 19.1462 138.489 19.1346C139.178 19.123 139.863 19.123 140.549 19.123Z" fill="#1E5542"/>
<path d="M165.634 21.4012C165.5 21.7121 165.335 22.0088 165.142 22.287C164.736 22.7706 164.219 23.1463 163.634 23.3806C163.05 23.6149 162.417 23.7007 161.792 23.6303C161.167 23.5599 160.568 23.3355 160.05 22.977C159.532 22.6185 159.11 22.137 158.821 21.5753C157.628 19.3628 158.274 17.22 160.584 16.2337C163.167 15.1236 165.688 16.5354 166.05 19.3009C166.131 19.9159 165.742 20.0204 165.257 20.0204C163.598 20.0204 161.943 20.0204 160.288 20.0204C159.079 20.0204 158.971 20.2447 159.599 21.3007C159.832 21.696 160.153 22.0323 160.536 22.2838C160.919 22.5352 161.355 22.6951 161.809 22.7511C162.263 22.8071 162.724 22.7578 163.156 22.607C163.588 22.4561 163.981 22.2077 164.302 21.8808C164.633 21.5521 164.918 21.115 165.634 21.4012ZM164.864 19.123C164.806 18.5111 164.531 17.9406 164.089 17.5149C163.648 17.0892 163.069 16.8364 162.459 16.8023C161.246 16.6901 159.922 17.4327 159.583 18.4036C159.406 18.9103 159.637 19.0998 160.103 19.1075C160.93 19.1075 161.758 19.1075 162.582 19.1075L164.864 19.123Z" fill="#1E5542"/>
<path d="M147.839 7.15952C147.839 8.10716 147.858 9.0548 147.839 10.0024C147.785 10.2396 147.688 10.4649 147.554 10.6677C147.392 10.5425 147.211 10.4434 147.019 10.3738C146.739 10.2892 146.44 10.2973 146.165 10.397C144.194 11.685 141.334 10.8031 140.541 8.8498C139.909 7.30263 140.098 5.44989 141.38 4.35914C142.743 3.19876 144.402 2.83518 146.037 3.89886C146.476 4.18508 146.834 4.57187 147.1 3.75187C147.131 3.65517 147.485 3.55074 147.508 3.58942C147.678 3.76219 147.795 3.98138 147.843 4.21989C147.877 5.19461 147.843 6.15386 147.843 7.14404L147.839 7.15952ZM143.963 10.0566C144.739 10.0379 145.477 9.71962 146.026 9.16788C146.574 8.61613 146.89 7.87333 146.907 7.09376C146.851 6.34488 146.529 5.64119 146 5.11086C145.471 4.58053 144.77 4.25886 144.024 4.20442C142.531 4.20442 141.191 5.59301 141.16 7.18272C141.166 7.93318 141.461 8.65214 141.984 9.1882C142.507 9.72425 143.216 10.0356 143.963 10.0566Z" fill="#1E5542"/>
<path d="M146.103 32.2972C146.103 33.2719 146.103 34.2311 146.103 35.2213C146.066 35.4357 145.995 35.6431 145.895 35.8363C145.726 35.7251 145.544 35.6354 145.353 35.5694C145.068 35.5114 144.683 35.3876 144.494 35.5153C143.139 36.459 140.495 36.3469 139.375 34.8306C138.578 33.7554 138.089 32.6143 138.605 31.2412C139.175 29.7289 140.145 28.7116 141.834 28.611C142.797 28.553 143.759 28.4873 144.591 29.2028C144.887 29.462 145.191 29.5006 145.418 29.0442C145.48 28.9127 145.715 28.8663 145.872 28.7773C145.98 28.9326 146.057 29.1072 146.099 29.2918C146.099 30.2936 146.099 31.2954 146.099 32.2972H146.103ZM142.362 29.4658C141.975 29.4589 141.591 29.5321 141.233 29.6809C140.876 29.8297 140.553 30.0509 140.284 30.3307C140.015 30.6104 139.807 30.9428 139.672 31.3071C139.536 31.6714 139.477 32.0598 139.498 32.448C139.502 32.8221 139.581 33.1915 139.73 33.5345C139.879 33.8775 140.094 34.187 140.364 34.4448C140.634 34.7026 140.953 34.9034 141.301 35.0355C141.649 35.1675 142.021 35.2281 142.393 35.2136C143.141 35.1782 143.847 34.8578 144.369 34.3174C144.89 33.7771 145.187 33.0574 145.199 32.3049C145.192 31.5521 144.89 30.8324 144.359 30.3011C143.828 29.7699 143.111 29.4699 142.362 29.4658Z" fill="#1E5542"/>
<path d="M175.412 32.653C174.499 32.653 173.583 32.653 172.671 32.653C172.117 32.653 172.028 32.8967 172.182 33.357C172.89 35.465 175.793 36.0336 177.306 34.3742C177.594 34.0571 177.783 33.3608 178.395 33.8289C178.48 33.8907 178.195 34.6024 177.941 34.9196C176.74 36.3585 175.158 36.3275 173.549 35.875C172.429 35.5578 171.351 33.9758 171.239 32.7807C171.121 31.976 171.264 31.1544 171.649 30.4385C172.033 29.7226 172.637 29.1508 173.372 28.8083C175.546 27.6479 178.499 29.1371 178.915 31.5545C179.072 32.4635 178.915 32.6801 177.983 32.6878C177.125 32.6878 176.266 32.6878 175.408 32.6878L175.412 32.653ZM175.027 31.7363C175.654 31.7363 176.282 31.7363 176.909 31.7363C177.737 31.717 177.921 31.3843 177.49 30.6688C177.233 30.2507 176.867 29.9104 176.433 29.6837C175.999 29.457 175.512 29.3523 175.023 29.3807C174.534 29.3654 174.05 29.4872 173.626 29.7324C173.202 29.9777 172.854 30.3367 172.621 30.7693C172.236 31.4501 172.378 31.7092 173.148 31.7324C173.764 31.7518 174.392 31.7363 175.019 31.7363H175.027Z" fill="#1E5542"/>
<path d="M135.849 7.34903C135.021 7.34903 134.193 7.34903 133.366 7.34903C132.538 7.34903 132.253 7.80932 132.646 8.56356C133.62 10.4434 136.26 10.5826 137.473 9.33715C137.592 9.21337 137.673 9.02771 137.812 8.95036C138.062 8.85086 138.319 8.77195 138.582 8.71441C138.555 8.96583 138.605 9.26752 138.482 9.45705C137.196 11.4838 133.712 11.4838 132.296 9.4996C130.879 7.51535 131.253 4.16573 134.455 3.36894C136.611 2.8313 138.832 3.96847 139.224 6.56385C139.309 7.1363 139.07 7.36064 138.524 7.33743C137.639 7.33743 136.753 7.33743 135.868 7.33743L135.849 7.34903ZM135.321 6.51743C135.976 6.51743 136.634 6.51743 137.292 6.51743C138.031 6.49422 138.193 6.22734 137.808 5.62781C137.555 5.18047 137.188 4.80965 136.743 4.55423C136.299 4.29882 135.795 4.16822 135.283 4.17613C134.771 4.18404 134.271 4.33017 133.835 4.5992C133.399 4.86822 133.043 5.25023 132.804 5.70517C132.477 6.26602 132.658 6.50969 133.254 6.51743C133.951 6.54064 134.636 6.52903 135.321 6.52903V6.51743Z" fill="#1E5542"/>
<path d="M125.721 7.02027C125.721 6.07649 125.69 5.12885 125.74 4.18508C125.74 3.89498 125.971 3.4115 126.125 3.37668C126.56 3.338 127.196 3.37668 127.426 3.6281C127.777 4.0497 128 4.07678 128.4 3.82536C128.629 3.64671 128.891 3.51526 129.17 3.43857C129.601 3.37281 130.302 3.25678 130.433 3.43857C130.675 3.82536 130.61 4.39782 130.602 4.89291C130.602 4.98961 130.26 5.15206 130.071 5.15979C128.366 5.23329 127.588 6.02234 127.584 7.72423C127.584 8.32763 127.584 8.93102 127.584 9.53055C127.604 10.1881 127.584 10.7141 126.668 10.718C125.752 10.7219 125.687 10.2732 125.714 9.55763C125.74 8.69895 125.714 7.84027 125.714 6.97772L125.721 7.02027Z" fill="#1E5542"/>
<path d="M167.278 19.6452C167.278 18.6975 167.278 17.7499 167.278 16.8023C167.278 15.932 167.436 15.8817 168.213 16.2221C168.575 16.3198 168.957 16.2995 169.306 16.164C170.65 15.7772 172.147 15.7772 172.967 16.9376C173.305 17.4243 173.51 17.9908 173.564 18.5815C173.656 19.8966 173.625 21.2194 173.587 22.5422C173.587 22.7743 173.302 23.0025 173.152 23.2307C172.99 23.0103 172.702 22.7937 172.694 22.5655C172.663 21.3045 172.694 20.0397 172.721 18.7788C172.747 18.5302 172.719 18.279 172.641 18.042C172.562 17.8049 172.434 17.5875 172.265 17.4043C172.096 17.2212 171.889 17.0765 171.66 16.98C171.431 16.8835 171.183 16.8374 170.935 16.8448C169.01 16.7636 168.202 17.5178 168.198 19.4556C168.198 20.4613 168.236 21.467 168.198 22.4688C168.198 22.7318 167.901 22.9832 167.744 23.2423C167.59 22.9909 167.32 22.7472 167.305 22.492C167.251 21.5482 167.282 20.5967 167.282 19.649L167.278 19.6452Z" fill="#1E5542"/>
<path d="M163.594 32.3281C163.571 33.8095 164.11 34.6179 165.519 35.2213C166.497 35.639 167.709 35.2871 168.633 34.3704C168.941 34.0648 169.145 33.3918 169.745 33.7979C169.822 33.8482 169.514 34.6218 169.264 34.9776C168.321 36.3043 166.22 36.3778 164.942 35.8788C163.664 35.3799 162.763 34.1924 162.632 32.4635C162.611 31.8921 162.718 31.3234 162.945 30.7992C163.172 30.275 163.514 29.8087 163.944 29.4348C164.375 29.0609 164.883 28.789 165.432 28.639C165.981 28.4891 166.557 28.465 167.116 28.5685C168.023 28.6741 168.855 29.1221 169.445 29.8217C169.613 30.119 169.731 30.4416 169.795 30.7771C169.45 30.691 169.113 30.5705 168.791 30.4173C168.433 30.2007 168.171 29.7985 167.802 29.6438C165.654 28.6226 163.637 29.9184 163.594 32.3281Z" fill="#1E5542"/>
<path d="M154.787 30.6997C154.164 31.0865 153.859 30.6997 153.532 30.3129C152.42 29.0365 150.988 28.963 149.683 29.7405C149.082 30.1423 148.644 30.7465 148.447 31.4443C148.25 32.1421 148.307 32.8876 148.609 33.5465C149.602 35.6429 151.977 36.0104 153.686 34.2002C153.95 33.9486 154.271 33.7665 154.622 33.6703C154.41 35.3025 153.024 36.1767 151.038 36.1109C149.356 36.0529 147.643 34.5831 147.412 33.0166C147.115 30.9511 148.367 29.1487 149.933 28.7232C151.993 28.1894 153.594 28.3906 154.787 30.6997Z" fill="#1E5542"/>
<path d="M176.028 20.1403C176.028 19.3938 176.028 18.6472 176.028 17.9046C176.028 17.2857 175.835 16.9376 175.154 16.8989C174.919 16.8989 174.696 16.6166 174.469 16.4657C174.684 16.3072 174.896 16.0209 175.115 16.0132C175.835 15.9938 176.097 15.6612 176.024 14.9843C175.997 14.8712 175.997 14.7532 176.024 14.6401C176.132 14.3577 176.27 14.087 176.409 13.8085C176.536 14.0908 176.794 14.3809 176.763 14.6517C176.694 15.4755 176.763 16.0751 177.821 16.0325C177.945 16.0325 178.206 16.3497 178.183 16.4851C178.148 16.5816 178.088 16.6677 178.011 16.7352C177.934 16.8028 177.841 16.8498 177.741 16.8719C176.832 16.8719 176.767 17.4521 176.778 18.1521C176.801 19.5833 176.805 21.0183 176.778 22.4533C176.778 22.6892 176.567 22.9174 176.455 23.1495C176.313 22.9174 176.07 22.6892 176.051 22.4455C176.001 21.672 176.032 20.8984 176.032 20.1248L176.028 20.1403Z" fill="#1E5542"/>
<path d="M150.51 5.86763C150.51 7.21754 150.537 8.57518 150.51 9.91348C150.51 10.1804 150.226 10.4357 150.075 10.6871C149.918 10.4202 149.625 10.1533 149.621 9.88641C149.585 7.19175 149.585 4.49581 149.621 1.79858C149.621 1.5433 149.929 1.29188 150.091 1.02499C150.241 1.28414 150.507 1.53943 150.518 1.79858C150.56 3.14462 150.537 4.50612 150.537 5.84056L150.51 5.86763Z" fill="#1E5542"/>
<path d="M134.332 18.5235C134.332 17.1736 134.305 15.8159 134.351 14.4776C134.351 14.2223 134.64 13.9748 134.794 13.704C134.956 13.9555 135.248 14.2069 135.252 14.4776C135.288 17.1465 135.288 19.8154 135.252 22.4842C135.252 22.7395 134.948 22.9871 134.783 23.2578C134.632 23.0025 134.355 22.755 134.348 22.4842C134.305 21.1614 134.332 19.8424 134.332 18.5235Z" fill="#1E5542"/>
<path d="M189.142 18.5235C189.142 19.8115 189.165 21.1034 189.123 22.3914C189.123 22.6621 188.853 22.9213 188.711 23.1843C188.545 22.9406 188.241 22.7008 188.237 22.4533C188.207 19.7896 188.207 17.1259 188.237 14.4621C188.237 14.2301 188.507 13.998 188.653 13.7621C188.815 14.0057 189.111 14.2417 189.119 14.4892C189.165 15.8353 189.142 17.1968 189.142 18.5273V18.5235Z" fill="#1E5542"/>
<path d="M157.235 32.7536C157.235 31.98 157.235 31.2064 157.235 30.4328C157.254 30.3211 157.248 30.2066 157.218 30.0975C157.188 29.9883 157.134 29.8872 157.06 29.8012C156.987 29.7153 156.896 29.6466 156.793 29.6C156.69 29.5534 156.578 29.53 156.466 29.5316C156.219 29.5084 155.992 29.2454 155.757 29.0907C155.973 28.9475 156.188 28.7039 156.404 28.6806C157.201 28.6806 157.216 28.1817 157.259 27.5899C157.333 27.1906 157.453 26.8013 157.617 26.4295C157.793 26.8025 157.913 27.2002 157.971 27.6092C157.971 28.3016 158.113 28.7193 158.914 28.6961C159.083 28.6961 159.26 28.963 159.437 29.1061C159.245 29.2608 159.052 29.5471 158.856 29.5471C158.105 29.5471 157.967 29.9532 157.982 30.6069C158.021 32.0999 158.017 33.5929 157.982 35.0821C157.982 35.3528 157.717 35.6158 157.574 35.8789C157.43 35.6395 157.324 35.3783 157.262 35.1053C157.209 34.3046 157.235 33.5272 157.235 32.7536Z" fill="#1E5542"/>
<path d="M135.225 32.2856C135.225 31.3108 135.225 30.3516 135.225 29.3575C135.225 28.7851 135.364 28.5491 135.995 28.7967C136.276 28.905 136.649 28.7657 136.977 28.7967C137.276 28.8326 137.573 28.8856 137.866 28.9553C137.692 29.168 137.562 29.4736 137.338 29.5857C136.98 29.7339 136.673 29.9866 136.458 30.3113C136.244 30.6359 136.131 31.0177 136.134 31.4075C136.114 32.5679 136.134 33.7051 136.134 34.8539C136.166 35.0513 136.154 35.2534 136.099 35.4456C135.955 35.6266 135.785 35.7844 135.595 35.9137C135.479 35.7396 135.267 35.5733 135.264 35.3954C135.225 34.3549 135.225 33.3183 135.225 32.2856Z" fill="#1E5542"/>
<path d="M161.342 32.3165C161.342 33.2603 161.373 34.2041 161.323 35.144C161.323 35.4108 161.046 35.6661 160.896 35.9175C160.73 35.67 160.43 35.4263 160.422 35.1749C160.384 33.2899 160.384 31.405 160.422 29.52C160.422 29.2415 160.742 28.9669 160.915 28.6923C161.1 28.9573 161.237 29.2533 161.319 29.5664C161.373 30.487 161.342 31.4037 161.342 32.3165Z" fill="#1E5542"/>
<path d="M161.6 27.1103L160.83 27.6905C160.676 27.4545 160.399 27.2108 160.407 26.9826C160.415 26.7544 160.73 26.561 160.907 26.3522L161.6 27.1103Z" fill="#1E5542"/>
</g>
<defs>
<clipPath id="clip0_27_671">
<rect width="189" height="41" fill="white" transform="translate(0.5)"/>
</clipPath>
</defs>
</svg>
