<svg width="211" height="35" viewBox="0 0 211 35" fill="none" xmlns="http://www.w3.org/2000/svg">
<path d="M80.6851 10.5989C82.2587 10.136 83.1124 10.67 83.8965 11.88C86.4309 15.7442 89.1018 19.5242 91.7218 23.3332C91.9118 23.612 92.1286 23.8724 92.4337 24.2775C94.3766 21.4576 96.2419 18.7535 98.1046 16.0467C99.0787 14.6315 100.147 13.2662 100.992 11.78C101.739 10.4648 102.724 10.2017 104.156 10.6016V34.5759H99.606V21.7785L99.3062 21.6681L92.4203 31.8139L85.5317 21.6865L85.3015 21.7733V34.5706H80.6851V10.5989Z" fill="#1E5542"/>
<path d="M52.1054 34.5785H47.5371V10.3911H51.6638C53.8048 10.3911 55.9458 10.3543 58.0868 10.4069C62.4276 10.5121 65.243 12.5113 66.2439 16.0967C67.5151 20.6711 66.086 24.9299 62.548 27.1132C62.4035 27.2026 62.2804 27.3105 62.0315 27.4815L67.301 34.6233C65.3955 34.6233 63.7363 34.6575 62.0797 34.5917C61.7746 34.5785 61.4214 34.1945 61.2073 33.9025C60.0618 32.3374 58.9913 30.7222 57.8085 29.186C57.4704 28.7707 56.9806 28.5017 56.4436 28.4363C55.076 28.3679 53.2321 27.9681 52.464 28.6599C51.696 29.3517 52.167 31.1826 52.1108 32.5189C52.0813 33.166 52.1054 33.8157 52.1054 34.5785ZM52.183 14.6709V24.4617C54.2919 24.3328 56.3499 24.409 58.3196 24.0408C60.7496 23.5831 61.9245 21.526 61.6756 18.8271C61.4535 16.3913 59.9655 14.8498 57.498 14.692C55.7745 14.5841 54.0377 14.6709 52.183 14.6709Z" fill="#1E5542"/>
<path d="M130.538 34.6916V10.4542H132.641C134.691 10.4542 136.746 10.541 138.796 10.4385C146.887 10.0281 152.686 17.6381 150.869 25.4823C149.504 31.3772 145.249 34.689 139.123 34.689L130.538 34.6916ZM135.119 15.0576V30.1803H139.348C143.282 30.1803 146.191 27.4157 146.539 23.3673C146.892 19.2585 144.379 15.6205 140.608 15.0997C138.834 14.8524 136.993 15.0576 135.119 15.0576Z" fill="#1E5542"/>
<path d="M109.123 10.5042H125.943V14.713H113.632V20.8289H123.922V24.9588H113.653V30.4145H126.622V34.5917H109.123V10.5042Z" fill="#1E5542"/>
<path d="M22.5226 10.47H27.0186C27.04 10.9725 27.0748 11.4012 27.0775 11.8274C27.0775 15.639 27.0775 19.4558 27.0775 23.2595C27.0629 24.0903 27.1184 24.9209 27.2434 25.7427C27.7787 28.8704 29.6172 30.3934 32.7216 30.3645C35.8261 30.3355 37.6379 28.7862 38.1089 25.6454C38.2589 24.3858 38.3206 23.1175 38.2935 21.8496C38.3149 18.0906 38.2935 14.3342 38.2935 10.4832H42.8725V12.8769C42.8725 17.0384 42.9475 21.1998 42.8351 25.3586C42.7334 29.1729 41.1946 32.3452 37.4826 33.9104C33.57 35.5597 29.6279 35.4282 26.0632 32.8845C23.9222 31.3614 22.9561 29.1045 22.6055 26.5845C22.5339 25.9733 22.5026 25.3582 22.5118 24.7431C22.5199 20.0266 22.5226 15.3049 22.5226 10.47Z" fill="#1E5542"/>
<path d="M18.1818 11.9247L16.3084 15.8073C14.419 15.3549 12.634 14.7998 10.8035 14.5368C9.61781 14.401 8.41703 14.474 7.25746 14.7525C6.2405 14.9708 5.61159 15.8047 5.54736 16.87C5.50776 17.3366 5.62758 17.8028 5.88788 18.1949C6.14817 18.587 6.53406 18.8826 6.98449 19.0349C8.21555 19.5295 9.50817 19.8767 10.774 20.2897C12.2085 20.7605 13.6858 21.1341 15.056 21.7259C17.668 22.8518 19.089 24.8378 18.9954 27.7129C18.899 30.7091 17.5475 33.0528 14.6492 34.0551C9.83199 35.7228 5.11916 35.123 0.5 32.6425L2.06827 29.0992C4.03261 29.6069 5.88188 30.2251 7.782 30.5276C9.14904 30.6989 10.5339 30.6794 11.8954 30.4697C13.1906 30.3092 14.1086 29.528 14.229 28.1443C14.3414 26.8291 13.4743 26.1136 12.3744 25.7111C11.0845 25.2403 9.73297 24.922 8.41894 24.5143C7.17943 24.1615 5.95923 23.7462 4.76322 23.27C2.14855 22.1415 0.724804 20.195 0.802415 17.3041C0.893406 14.3316 2.24757 12.1851 4.9907 10.9488C7.58664 9.7861 10.3084 9.93341 13.0006 10.4727C14.6867 10.8225 16.3218 11.3986 18.1818 11.9247Z" fill="#1E5542"/>
<path d="M185.387 14.8945L181.881 18.0222C180.195 15.8968 178.094 14.6762 175.311 14.9024C174.396 14.9666 173.503 15.2089 172.684 15.6154C171.866 16.0218 171.137 16.5842 170.542 17.2699C167.761 20.366 168.042 25.7453 171.104 28.4995C174.275 31.3509 178.378 30.9037 181.905 27.2158L185.384 30.3119C182.785 34.0972 177.256 35.8727 172.57 34.4891C167.352 32.945 163.803 28.1233 163.8 22.5756C163.8 17.112 167.322 12.2746 172.455 10.6989C177.179 9.24686 182.697 10.9961 185.387 14.8945Z" fill="#1E5542"/>
<path d="M159.799 34.6232H155.25V10.549H159.799V34.6232Z" fill="#1E5542"/>
<path d="M74.4898 32.0953C74.5112 33.6605 73.4193 34.8626 71.934 34.881C70.4487 34.8994 69.3407 33.7841 69.322 32.1716C69.3033 30.5591 70.3925 29.3701 71.8537 29.3517C73.3149 29.3333 74.4737 30.5565 74.4898 32.0953Z" fill="#1E5542"/>
<path d="M198.616 0H202.883V7.74527H210.5V11.97H202.883V19.8561H198.616V11.97H190.928V7.74527H198.616V0Z" fill="#1E5542"/>
</svg>
