<svg width="210" height="27" viewBox="0 0 210 27" fill="none" xmlns="http://www.w3.org/2000/svg">
<path d="M191.147 1.73901H208.439V6.83951H199.934C196.478 6.83951 196.478 6.83951 196.858 10.7652H207.5C207.5 12.277 207.589 13.6027 207.438 14.8995C207.398 15.2205 206.603 15.7084 206.142 15.7244C203.623 15.8047 201.1 15.763 198.577 15.763H196.824V19.7593H208.643V25.0235H191.147V1.73901Z" fill="#1E5542"/>
<path d="M132.068 6.83952H124.271C120.116 6.83952 120.116 6.83952 120.113 8.82002C120.113 10.8647 120.113 10.8647 124.345 10.8647H130.773V15.763H122.425C120.295 15.763 119.333 17.2459 120.221 19.2938C120.36 19.6148 121.04 19.8235 121.457 19.8299C124.395 19.8748 127.332 19.8556 130.266 19.8556H132.074V24.9914H114.761V1.78397C115.064 1.69799 115.375 1.64104 115.688 1.61384C120.737 1.61384 125.786 1.61384 130.838 1.58817C131.784 1.58817 132.13 1.94125 132.093 2.90742C132.028 4.17533 132.068 5.44323 132.068 6.83952Z" fill="#1E5542"/>
<path d="M106.338 16.9731L111.514 25.1166C109.325 25.1166 107.402 25.1679 105.485 25.0748C105.095 25.0556 104.629 24.5645 104.369 24.1696C103.24 22.4524 102.093 20.7351 101.107 18.9311C100.291 17.4385 99.0511 17.7467 97.867 17.904C97.6259 17.9361 97.3291 18.7321 97.3136 19.1879C97.2518 21.0978 97.2858 23.0109 97.2858 25.0235H91.8073C91.7671 24.4746 91.699 23.961 91.696 23.4442C91.696 16.7645 91.7269 10.0847 91.665 3.40496C91.665 2.02471 91.9928 1.51434 93.3871 1.58496C96.7726 1.75508 100.167 1.72619 103.556 1.88669C106.944 2.04718 109.739 4.15607 110.633 7.11878C111.764 10.8647 110.503 14.2961 107.25 16.3279C106.997 16.482 106.759 16.6714 106.338 16.9731ZM106.92 8.25187C106.762 8.03928 106.434 7.86027 106.36 7.86989C103.673 8.25508 101.815 7.42051 101.379 4.33903C101.345 4.08545 101.02 3.6951 100.631 3.68101C100.124 3.66264 99.9045 4.34866 99.8581 4.72422C99.5489 7.09952 98.4452 8.30965 96.0151 7.98866C95.6595 7.94051 95.0234 8.07894 94.865 8.5536C94.6906 9.07589 95.2823 9.58718 95.6348 9.73483C97.8361 10.6432 98.1391 12.2417 97.3662 14.3185C97.317 14.4176 97.2981 14.6395 97.2981 14.6395C97.2981 14.6395 97.0791 15.6094 97.5393 15.8047C97.9995 16 98.337 15.7245 98.6245 15.519C99.416 14.9477 100.149 14.2864 101.017 13.5706C101.794 14.2126 102.511 14.8931 103.305 15.4548C103.47 15.5538 103.653 15.6152 103.842 15.6351C104.031 15.6551 104.223 15.633 104.403 15.5704C104.595 15.4869 104.675 14.9284 104.666 14.6074C104.64 14.2317 104.535 13.8665 104.357 13.5385C103.491 11.8245 104.063 10.685 105.572 9.76051C106.113 9.42669 107.39 8.88667 106.92 8.25187Z" fill="#1E5542"/>
<path d="M88.5021 25.1165C86.6038 25.1165 84.8662 25.2 83.1472 25.0588C82.7268 25.0235 82.2197 24.3398 81.9879 23.8358C80.3585 20.0867 81.4994 20.7607 77.3503 20.6869C76.0116 20.6644 74.6667 20.7607 73.331 20.6612C72.1933 20.5778 71.6924 21.0978 71.3183 22.141C70.2517 25.1358 70.2146 25.123 67.1322 25.123H64.3496C64.4208 24.6874 64.5241 24.2581 64.6588 23.839C67.4259 16.88 70.2239 9.93062 72.9693 2.97482C73.3743 1.94445 73.8968 1.51753 75.0098 1.53037C79.1187 1.57531 79.1404 1.53037 80.7573 5.54272C83.1874 11.5965 85.5897 17.6728 87.9951 23.7459C88.1558 24.1279 88.2857 24.5227 88.5021 25.1165ZM79.2269 16.0262L76.6144 9.28543H76.0301C75.2263 11.4585 74.4255 13.6316 73.5382 16.0262H79.2269Z" fill="#1E5542"/>
<path d="M43.4226 25.1166C41.481 25.1166 39.7404 25.1872 38.0152 25.062C37.638 25.0331 37.0877 24.3687 36.9857 23.9129C36.6848 22.4734 36.1062 21.5148 35.2509 21C34.4716 20.5311 32.2244 20.6709 32.2244 20.6709H30.6786C30.6786 20.6709 28.18 20.4955 27.3068 21C26.3907 21.5294 25.7691 22.5364 25.5 24.1568C25.4381 24.5356 24.7487 25.0492 24.3251 25.078C22.6865 25.184 21.0386 25.1198 19.1465 25.1198C19.9194 23.1104 20.612 21.2455 21.3478 19.403C23.5522 13.8756 25.7906 8.36101 27.9579 2.82076C28.3227 1.8899 28.7772 1.53681 29.7634 1.53681C34.1351 1.53681 34.1166 1.5015 35.7675 5.68076C38.1049 11.6062 40.4793 17.5124 42.8321 23.4474C43.0238 23.9321 43.166 24.42 43.4226 25.1166ZM34.1475 16.0294L31.4515 9.11533L30.9816 9.18916L28.5082 16.0294H34.1475Z" fill="#1E5542"/>
<path d="M175.262 25.0363H169.737V1.7005C172.789 1.7005 175.809 1.58173 178.818 1.74544C180.453 1.86329 182.064 2.21433 183.607 2.78865C186.371 3.7805 187.756 6.03383 188.003 8.97729C188.254 11.9721 187.385 14.5625 184.958 16.4082C182.794 18.0516 180.292 18.1736 177.739 18.1286C175.058 18.0805 175.429 17.9874 175.404 20.5168C175.389 21.8521 175.404 23.1874 175.38 24.5227C175.353 24.6968 175.314 24.8685 175.262 25.0363ZM175.408 13.4294C176.437 13.4294 177.204 13.4294 177.971 13.4294C178.383 13.4408 178.796 13.428 179.207 13.3909C181.062 13.1533 182.015 12.2482 182.123 10.6753C182.28 8.36099 181.789 7.57778 179.572 7.09951C178.46 6.90437 177.33 6.84405 176.205 6.91976C175.93 6.91976 175.457 7.48148 175.445 7.79926C175.37 9.58716 175.408 11.3943 175.408 13.4294Z" fill="#1E5542"/>
<path d="M151.929 9.19557C150.328 8.37063 148.995 7.42693 147.52 6.99038C145.356 6.34841 142.966 7.59063 141.931 9.67705C140.666 12.245 140.694 14.8674 142.054 17.3422C143.708 20.3531 148.102 20.8282 150.625 18.2603C151.552 17.3326 152.17 17.3358 153.055 18.1447C153.902 18.9151 154.848 19.5667 155.744 20.2632C154.22 24.0059 149.008 26.0859 144.664 25.383C139.318 24.5131 135.5 19.923 135.126 13.9815C134.773 8.36421 138.304 3.3568 143.752 1.6331C147.653 0.400507 153.336 1.85458 155.67 6.08199L151.929 9.19557Z" fill="#1E5542"/>
<path d="M17.6373 25.0459H1.34082V1.74545H6.94301V19.5859H17.6373V25.0459Z" fill="#1E5542"/>
<path d="M62.7236 25.0812H46.4056C46.3685 24.5677 46.3005 24.0605 46.3005 23.5533C46.3005 16.7677 46.3252 9.9852 46.2695 3.19952C46.2695 1.91557 46.6467 1.50149 47.8525 1.59458C49.1727 1.68766 50.5052 1.61384 52.0047 1.61384V19.5891H59.3599C62.8257 19.5891 62.8288 19.5891 62.8102 23.242C62.8071 23.8101 62.7577 24.3847 62.7236 25.0812Z" fill="#1E5542"/>
<path d="M164.955 25.0492H159.371C159.328 24.4874 159.25 23.9289 159.25 23.3704C159.25 16.6938 159.272 10.0205 159.223 3.34397C159.223 2.06001 159.492 1.45014 160.84 1.58816C161.869 1.65747 162.902 1.65747 163.931 1.58816C164.744 1.55606 165.168 1.80643 165.168 2.75335C165.146 9.90816 165.168 17.063 165.143 24.2178C165.109 24.5012 165.046 24.7799 164.955 25.0492Z" fill="#1E5542"/>
</svg>
