<svg width="66" height="82" viewBox="0 0 66 82" fill="none" xmlns="http://www.w3.org/2000/svg">
<path fill-rule="evenodd" clip-rule="evenodd" d="M4.01115 73.7397C4.5176 73.6875 5.02942 73.7418 5.51348 73.8991C5.99754 74.0564 6.44303 74.3133 6.82115 74.653C7.19926 74.9927 7.50157 75.4078 7.70848 75.8713C7.9154 76.3349 8.02231 76.8365 8.02231 77.3438C8.02231 77.8511 7.9154 78.3528 7.70848 78.8163C7.50157 79.2798 7.19926 79.6949 6.82115 80.0347C6.44303 80.3744 5.99754 80.6312 5.51348 80.7886C5.02942 80.9459 4.5176 81.0002 4.01115 80.9479C3.50471 81.0002 2.99288 80.9459 2.50883 80.7886C2.02477 80.6312 1.57928 80.3744 1.20116 80.0347C0.823045 79.6949 0.520741 79.2798 0.313827 78.8163C0.106912 78.3528 0 77.8511 0 77.3438C0 76.8365 0.106912 76.3349 0.313827 75.8713C0.520741 75.4078 0.823045 74.9927 1.20116 74.653C1.57928 74.3133 2.02477 74.0564 2.50883 73.8991C2.99288 73.7418 3.50471 73.6875 4.01115 73.7397Z" fill="#FADEEB"/>
<path fill-rule="evenodd" clip-rule="evenodd" d="M21.7682 34.1912V12.1812H28.8479V40.243C37.5842 44.0177 45.8856 48.722 53.6076 54.2739C62.1961 60.5184 68.6181 68.8444 64.9428 81.2564H54.5747C67.2254 66.5702 40.0284 47.4511 28.7318 42.7099C28.7318 50.9589 28.7318 61.405 28.7318 70.3863H21.7295V44.6373V34.1912H21.7682Z" fill="#FADEEB"/>
<path fill-rule="evenodd" clip-rule="evenodd" d="M36.0057 6.90045C33.6845 2.12069 27.7654 1.5425 23.0069 1.73523C14.9213 2.08215 7.18396 6.09098 6.64234 15.9589C6.29416 24.362 12.7549 32.4182 19.6412 36.2728V38.47C10.7432 33.9986 1.14879 25.9039 2.61889 14.4556C4.39849 -3.9311 33.1429 -2.81325 42.0022 6.90045H36.0057Z" fill="#FADEEB"/>
<path fill-rule="evenodd" clip-rule="evenodd" d="M60.7264 18.2332H65.5622L47.7662 47.7212L44.207 45.6011L60.7264 18.2332Z" fill="#FADEEB"/>
</svg>
