<svg width="376" height="463" viewBox="0 0 376 463" fill="none" xmlns="http://www.w3.org/2000/svg">
<g opacity="0.4">
<path fill-rule="evenodd" clip-rule="evenodd" d="M22.8514 420.171C25.7367 419.874 28.6525 420.183 31.4101 421.079C34.1678 421.976 36.7058 423.439 38.8599 425.375C41.014 427.311 42.7362 429.676 43.915 432.317C45.0938 434.959 45.7029 437.817 45.7029 440.708C45.7029 443.598 45.0938 446.457 43.915 449.098C42.7362 451.739 41.014 454.104 38.8599 456.04C36.7058 457.976 34.1678 459.439 31.4101 460.336C28.6525 461.232 25.7367 461.542 22.8514 461.244C19.9662 461.542 17.0504 461.232 14.2927 460.336C11.5351 459.439 8.9971 457.976 6.84298 456.04C4.68886 454.104 2.96665 451.739 1.78786 449.098C0.609077 446.457 0 443.598 0 440.708C0 437.817 0.609077 434.959 1.78786 432.317C2.96665 429.676 4.68886 427.311 6.84298 425.375C8.9971 423.439 11.5351 421.976 14.2927 421.079C17.0504 420.183 19.9662 419.874 22.8514 420.171Z" fill="#FADEEB"/>
<path fill-rule="evenodd" clip-rule="evenodd" d="M124.013 194.822V69.4084H164.346V229.305C214.117 250.814 261.41 277.619 305.401 309.253C354.33 344.835 390.916 392.277 369.978 463H310.911C382.982 379.318 228.042 270.377 163.685 243.362C163.685 290.364 163.685 349.886 163.685 401.062H123.793V254.344V194.822H124.013Z" fill="#FADEEB"/>
<path fill-rule="evenodd" clip-rule="evenodd" d="M205.124 39.3189C191.9 12.0837 158.179 8.78917 131.07 9.88736C85.0066 11.8641 40.9269 34.7065 37.8413 90.9338C35.8577 138.815 72.6643 184.719 111.895 206.683V219.203C61.2035 193.725 6.54466 147.6 14.9198 82.368C25.0581 -22.3995 188.814 -16.03 239.286 39.3189H205.124Z" fill="#FADEEB"/>
<path fill-rule="evenodd" clip-rule="evenodd" d="M345.956 103.892H373.506L272.122 271.915L251.846 259.835L345.956 103.892Z" fill="#FADEEB"/>
</g>
</svg>
