<svg width="46" height="32" viewBox="0 0 46 32" fill="none" xmlns="http://www.w3.org/2000/svg">
<g id="Payment method icon">
<rect x="0.5" y="0.5" width="45" height="31" rx="5.5" fill="white"/>
<rect x="0.5" y="0.5" width="45" height="31" rx="5.5" stroke="#F2F4F7"/>
<path id="ApplePay" fill-rule="evenodd" clip-rule="evenodd" d="M12.6968 11.1242C12.31 11.5934 11.6912 11.9635 11.0723 11.9106C10.995 11.2762 11.298 10.6022 11.6525 10.1858C12.0393 9.70341 12.7161 9.35978 13.264 9.33334C13.3285 9.99418 13.0771 10.6418 12.6968 11.1242ZM13.2575 12.0362C12.7123 12.004 12.2149 12.2043 11.8131 12.366C11.5545 12.4701 11.3356 12.5582 11.169 12.5582C10.9821 12.5582 10.7541 12.4654 10.4981 12.3611C10.1626 12.2245 9.77915 12.0683 9.37699 12.0758C8.45521 12.089 7.59789 12.6243 7.12733 13.4768C6.16042 15.1818 6.87593 17.7062 7.81061 19.0939C8.26827 19.7812 8.81619 20.5346 9.53814 20.5081C9.85576 20.4959 10.0842 20.3965 10.3207 20.2936C10.5929 20.1752 10.8757 20.0522 11.3173 20.0522C11.7435 20.0522 12.0139 20.172 12.2735 20.287C12.5203 20.3963 12.7574 20.5014 13.1092 20.4949C13.857 20.4817 14.3275 19.8077 14.7852 19.1204C15.2791 18.3827 15.4962 17.6629 15.5291 17.5536L15.533 17.541C15.5322 17.5402 15.5261 17.5373 15.5153 17.5323L15.5153 17.5322C15.3502 17.4548 14.0883 16.8625 14.0762 15.2743C14.064 13.9412 15.0771 13.2658 15.2366 13.1595L15.2366 13.1595C15.2463 13.153 15.2528 13.1487 15.2558 13.1464C14.6112 12.1683 13.6056 12.0626 13.2575 12.0362ZM18.4337 20.4222V10.1197H22.2047C24.1514 10.1197 25.5115 11.4943 25.5115 13.5032C25.5115 15.5122 24.1256 16.9 22.1531 16.9H19.9937V20.4222H18.4337ZM19.9935 11.4678H21.792C23.1457 11.4678 23.9192 12.208 23.9192 13.5098C23.9192 14.8117 23.1457 15.5584 21.7855 15.5584H19.9935V11.4678ZM30.6619 19.1865C30.2494 19.9927 29.3405 20.5015 28.3607 20.5015C26.9103 20.5015 25.8983 19.616 25.8983 18.2811C25.8983 16.9594 26.8781 16.1995 28.6894 16.0871L30.6361 15.9682V15.3999C30.6361 14.5606 30.1011 14.1046 29.1471 14.1046C28.3607 14.1046 27.787 14.5209 27.671 15.1553H26.2657C26.3109 13.8204 27.5356 12.849 29.1922 12.849C30.9778 12.849 32.1381 13.8072 32.1381 15.2941V20.4222H30.6942V19.1865H30.6619ZM28.7796 19.279C27.948 19.279 27.4195 18.8693 27.4195 18.2415C27.4195 17.5938 27.9287 17.2172 28.9021 17.1577L30.636 17.0453V17.6269C30.636 18.5917 29.8367 19.279 28.7796 19.279ZM36.9274 20.8254C36.3022 22.6295 35.5866 23.2242 34.0654 23.2242C33.9493 23.2242 33.5626 23.211 33.4723 23.1846V21.9488C33.569 21.962 33.8075 21.9752 33.93 21.9752C34.6197 21.9752 35.0065 21.6778 35.245 20.9047L35.3868 20.4487L32.7439 12.9482H34.3748L36.2119 19.0345H36.2441L38.0813 12.9482H39.667L36.9274 20.8254Z" fill="black"/>
</g>
</svg>
