<svg width="1244" height="125" viewBox="0 0 1244 125" fill="none" xmlns="http://www.w3.org/2000/svg">
<path d="M1191.01 121.627V71.2044L1148.75 2.38477H1161.7L1199.7 64.7313H1200.72L1231.05 2.38477H1244L1203.28 68.8196V121.627H1191.01Z" fill="#FADEEB"/>
<path d="M1066.35 2.38477H1089.18C1101.22 2.38477 1110.54 4.93995 1117.13 10.0503C1123.83 15.0471 1127.18 22.0881 1127.18 31.1732C1127.18 38.2141 1125.08 44.0627 1120.88 48.7188C1116.79 53.3749 1110.82 56.4979 1102.99 58.0878V59.1099C1110.48 60.5862 1116.62 64.1067 1121.39 69.6713C1126.16 75.2359 1129.74 82.1065 1132.12 90.2831C1134.28 97.7783 1136.38 103.627 1138.43 107.829C1140.59 111.917 1142.91 114.87 1145.41 116.687C1148.03 118.504 1151.09 119.81 1154.62 120.605V121.627H1147.63C1142.63 121.627 1138.48 120.718 1135.19 118.901C1132.01 117.084 1129.28 114.018 1127.01 109.703C1124.74 105.387 1122.58 99.425 1120.54 91.8162C1117.24 80.1192 1112.87 71.829 1107.42 66.9458C1101.96 62.0625 1095.32 59.6209 1087.48 59.6209H1086.46V56.5547H1087.48C1105.77 56.5547 1114.91 48.151 1114.91 31.3435C1114.91 14.7632 1106.34 6.47306 1089.18 6.47306H1077.94V121.627H1066.35V2.38477Z" fill="#FADEEB"/>
<path d="M909.977 62.0058C909.977 53.2614 911.51 45.1416 914.577 37.6464C917.758 30.0376 922.132 23.4509 927.698 17.8863C933.378 12.2081 939.967 7.8359 947.464 4.76968C955.075 1.58989 963.254 0 972.001 0C980.748 0 988.871 1.58989 996.368 4.76968C1003.98 7.8359 1010.57 12.2081 1016.13 17.8863C1021.81 23.4509 1026.19 30.0376 1029.25 37.6464C1032.44 45.1416 1034.03 53.2614 1034.03 62.0058C1034.03 70.7502 1032.44 78.9268 1029.25 86.5356C1026.19 94.0308 1021.81 100.617 1016.13 106.296C1010.57 111.86 1003.98 116.233 996.368 119.412C988.871 122.479 980.748 124.012 972.001 124.012C963.254 124.012 955.075 122.479 947.464 119.412C939.967 116.233 933.378 111.86 927.698 106.296C922.132 100.617 917.758 94.0308 914.577 86.5356C911.51 78.9268 909.977 70.7502 909.977 62.0058ZM922.927 62.0058C922.927 73.5893 924.972 83.7533 929.061 92.4977C933.151 101.129 938.887 107.886 946.271 112.769C953.655 117.538 962.232 119.923 972.001 119.923C981.771 119.923 990.347 117.538 997.731 112.769C1005.12 107.886 1010.85 101.072 1014.94 92.3273C1019.03 83.5829 1021.08 73.4758 1021.08 62.0058C1021.08 50.5359 1019.03 40.4855 1014.94 31.8546C1010.85 23.1102 1005.12 16.2964 997.731 11.4132C990.347 6.52992 981.771 4.08829 972.001 4.08829C962.232 4.08829 953.655 6.52992 946.271 11.4132C939.001 16.1828 933.264 22.9399 929.061 31.6843C924.972 40.3151 922.927 50.4223 922.927 62.0058Z" fill="#FADEEB"/>
<path d="M843.835 121.627V5.79168C842.131 5.79168 838.609 6.13238 833.27 6.81376L799.872 11.0724V2.38477H899.384V11.0724L865.986 6.81376C860.647 6.13238 857.126 5.79168 855.422 5.79168V121.627H843.835Z" fill="#FADEEB"/>
<path d="M720.392 117.879L721.414 107.658H722.436C726.867 111.52 731.865 114.529 737.431 116.687C742.998 118.844 748.507 119.923 753.96 119.923C761.685 119.923 767.933 117.822 772.704 113.621C777.475 109.305 779.86 103.57 779.86 96.4156C779.86 92.4409 778.952 88.7501 777.134 85.3432C775.43 81.9363 772.533 78.4726 768.444 74.9521C764.468 71.4316 758.958 67.6272 751.915 63.5389C747.03 60.6998 742.373 57.7472 737.943 54.681C733.512 51.5012 729.877 47.8671 727.037 43.7788C724.197 39.577 722.777 34.5802 722.777 28.7884C722.777 20.1576 725.901 13.2302 732.149 8.00624C738.397 2.66875 746.633 0 756.857 0C761.401 0 766.285 0.511036 771.511 1.53311C776.736 2.44162 780.769 3.63404 783.609 5.11037L782.757 14.6497H781.735C775.26 7.60877 766.967 4.08829 756.857 4.08829C749.586 4.08829 743.736 5.9621 739.306 9.70971C734.875 13.3437 732.66 18.2838 732.66 24.5298C732.66 29.1859 733.853 33.2174 736.239 36.6243C738.738 39.9177 741.919 42.9271 745.781 45.6526C749.643 48.2646 753.79 50.8198 758.22 53.3182C763.332 56.2708 768.273 59.3938 773.044 62.6872C777.929 65.9805 781.905 69.9553 784.972 74.6114C788.153 79.1539 789.743 84.8889 789.743 91.8163C789.743 98.1759 788.267 103.797 785.313 108.681C782.36 113.45 778.156 117.198 772.704 119.923C767.365 122.649 761.117 124.012 753.96 124.012C749.416 124.012 744.077 123.444 737.943 122.308C731.808 121.173 725.958 119.696 720.392 117.879Z" fill="#FADEEB"/>
<path d="M549.006 121.627L553.266 0H555.311L641.021 103.57H642.043L638.294 2.38484H649.881L645.621 124.012H643.577L557.867 20.4415H556.844L560.593 121.627H549.006Z" fill="#FADEEB"/>
<path d="M425.093 121.627L470.93 2.38477H481.494L527.331 121.627H514.892L493.763 65.7533H455.083L437.532 121.627H425.093ZM472.123 11.2427L456.276 61.665H492.229L473.145 11.2427H472.123Z" fill="#FADEEB"/>
<path d="M358.028 121.627V2.38477H410V10.7317L380.18 6.81376C374.955 6.13238 371.433 5.79168 369.615 5.79168V57.7471C371.092 57.7471 374.614 57.5768 380.18 57.2361L408.125 55.5326V63.3685L380.18 61.665C374.614 61.3244 371.092 61.154 369.615 61.154V118.22C371.66 118.22 375.238 117.879 380.35 117.198L410.511 113.28V121.627H358.028Z" fill="#FADEEB"/>
<path d="M252.108 2.38477H274.942C286.983 2.38477 296.298 4.93995 302.887 10.0503C309.589 15.0471 312.94 22.0881 312.94 31.1732C312.94 38.2141 310.839 44.0627 306.636 48.7188C302.546 53.3749 296.582 56.4979 288.744 58.0878V59.1099C296.241 60.5862 302.376 64.1067 307.147 69.6713C311.918 75.2359 315.496 82.1065 317.882 90.2831C320.04 97.7783 322.142 103.627 324.187 107.829C326.345 111.917 328.674 114.87 331.173 116.687C333.786 118.504 336.853 119.81 340.374 120.605V121.627H333.388C328.39 121.627 324.243 120.718 320.949 118.901C317.768 117.084 315.042 114.018 312.77 109.703C310.498 105.387 308.34 99.425 306.295 91.8162C303.001 80.1192 298.627 71.829 293.174 66.9458C287.722 62.0625 281.076 59.6209 273.238 59.6209H272.215V56.5547H273.238C291.527 56.5547 300.672 48.151 300.672 31.3435C300.672 14.7632 292.095 6.47306 274.942 6.47306H263.695V121.627H252.108V2.38477Z" fill="#FADEEB"/>
<path d="M95.7354 62.0058C95.7354 53.2614 97.2689 45.1416 100.336 37.6464C103.517 30.0376 107.89 23.4509 113.457 17.8863C119.137 12.2081 125.725 7.8359 133.223 4.76968C140.834 1.58989 149.013 0 157.76 0C166.507 0 174.629 1.58989 182.127 4.76968C189.738 7.8359 196.327 12.2081 201.893 17.8863C207.573 23.4509 211.947 30.0376 215.014 37.6464C218.194 45.1416 219.785 53.2614 219.785 62.0058C219.785 70.7502 218.194 78.9268 215.014 86.5356C211.947 94.0308 207.573 100.617 201.893 106.296C196.327 111.86 189.738 116.233 182.127 119.412C174.629 122.479 166.507 124.012 157.76 124.012C149.013 124.012 140.834 122.479 133.223 119.412C125.725 116.233 119.137 111.86 113.457 106.296C107.89 100.617 103.517 94.0308 100.336 86.5356C97.2689 78.9268 95.7354 70.7502 95.7354 62.0058ZM108.686 62.0058C108.686 73.5893 110.73 83.7533 114.82 92.4977C118.909 101.129 124.646 107.886 132.03 112.769C139.414 117.538 147.991 119.923 157.76 119.923C167.53 119.923 176.106 117.538 183.49 112.769C190.874 107.886 196.611 101.072 200.7 92.3273C204.79 83.5829 206.835 73.4758 206.835 62.0058C206.835 50.5359 204.79 40.4855 200.7 31.8546C196.611 23.1102 190.874 16.2964 183.49 11.4132C176.106 6.52992 167.53 4.08829 157.76 4.08829C147.991 4.08829 139.414 6.52992 132.03 11.4132C124.76 16.1828 119.023 22.9399 114.82 31.6843C110.73 40.3151 108.686 50.4223 108.686 62.0058Z" fill="#FADEEB"/>
<path d="M73.6118 121.627L17.7214 60.4726L69.5222 2.38477H84.1764L28.1156 55.7029L88.9476 121.627H73.6118ZM0 121.627V2.38477H11.587V121.627H0Z" fill="#FADEEB"/>
</svg>
